<svg width="40" height="39" viewBox="0 0 40 39" fill="none" xmlns="http://www.w3.org/2000/svg">
<path d="M4.90137 19.5H19.5264V21.9375H4.90137V19.5Z" fill="url(#paint0_linear_125_319)"/>
<path d="M2.46387 13.4062H14.6514V15.8438H2.46387V13.4062Z" fill="url(#paint1_linear_125_319)"/>
<path d="M36.4903 20.2386L32.8341 11.7073C32.7403 11.488 32.5841 11.3011 32.385 11.1698C32.1859 11.0385 31.9526 10.9686 31.7141 10.9687H28.0578V8.53125C28.0578 8.20802 27.9294 7.89802 27.7008 7.66946C27.4723 7.4409 27.1623 7.3125 26.8391 7.3125H7.33906V9.75H25.6203V25.0526C25.065 25.3751 24.579 25.8043 24.1903 26.3155C23.8017 26.8268 23.5181 27.4099 23.3559 28.0312H15.6972C15.4006 26.8824 14.6952 25.8811 13.7131 25.2152C12.7311 24.5493 11.5399 24.2643 10.3628 24.4139C9.18569 24.5634 8.10354 25.137 7.31917 26.0273C6.5348 26.9176 6.10205 28.0635 6.10205 29.25C6.10205 30.4365 6.5348 31.5824 7.31917 32.4727C8.10354 33.363 9.18569 33.9366 10.3628 34.0861C11.5399 34.2357 12.7311 33.9507 13.7131 33.2848C14.6952 32.6189 15.4006 31.6176 15.6972 30.4687H23.3559C23.621 31.5147 24.2273 32.4424 25.0789 33.1051C25.9305 33.7678 26.9788 34.1276 28.0578 34.1276C29.1369 34.1276 30.1851 33.7678 31.0367 33.1051C31.8883 32.4424 32.4946 31.5147 32.7597 30.4687H35.3703C35.6935 30.4687 36.0035 30.3403 36.2321 30.1118C36.4607 29.8832 36.5891 29.5732 36.5891 29.25V20.7187C36.5891 20.5536 36.5555 20.3903 36.4903 20.2386ZM10.9953 31.6875C10.5132 31.6875 10.042 31.5445 9.64111 31.2767C9.24026 31.0089 8.92784 30.6282 8.74336 30.1828C8.55887 29.7374 8.5106 29.2473 8.60465 28.7745C8.6987 28.3016 8.93085 27.8673 9.27174 27.5264C9.61263 27.1855 10.047 26.9534 10.5198 26.8593C10.9926 26.7653 11.4827 26.8136 11.9281 26.998C12.3735 27.1825 12.7542 27.4949 13.022 27.8958C13.2899 28.2966 13.4328 28.7679 13.4328 29.25C13.4322 29.8963 13.1752 30.5159 12.7182 30.9729C12.2612 31.4298 11.6416 31.6869 10.9953 31.6875ZM28.0578 13.4062H30.9097L33.5227 19.5H28.0578V13.4062ZM28.0578 31.6875C27.5757 31.6875 27.1045 31.5445 26.7036 31.2767C26.3028 31.0089 25.9903 30.6282 25.8059 30.1828C25.6214 29.7374 25.5731 29.2473 25.6671 28.7745C25.7612 28.3016 25.9933 27.8673 26.3342 27.5264C26.6751 27.1855 27.1094 26.9534 27.5823 26.8593C28.0551 26.7653 28.5452 26.8136 28.9906 26.998C29.436 27.1825 29.8167 27.4949 30.0845 27.8958C30.3524 28.2966 30.4953 28.7679 30.4953 29.25C30.4947 29.8963 30.2377 30.5159 29.7807 30.9729C29.3237 31.4298 28.7041 31.6869 28.0578 31.6875ZM34.1516 28.0312H32.7597C32.4913 26.9873 31.884 26.062 31.0331 25.4003C30.1822 24.7386 29.1357 24.378 28.0578 24.375V21.9375H34.1516V28.0312Z" fill="url(#paint2_linear_125_319)"/>
<defs>
<linearGradient id="paint0_linear_125_319" x1="5.89622" y1="20.2678" x2="19.9455" y2="21.77" gradientUnits="userSpaceOnUse">
<stop stop-color="#4280CF"/>
<stop offset="0.0812499" stop-color="#3975C0"/>
<stop offset="0.451042" stop-color="#0C315F"/>
<stop offset="0.586458" stop-color="#0A2444"/>
<stop offset="0.815625" stop-color="#03234B"/>
<stop offset="1" stop-color="#4280CF"/>
</linearGradient>
<linearGradient id="paint1_linear_125_319" x1="3.29291" y1="14.1741" x2="15.0412" y2="15.2208" gradientUnits="userSpaceOnUse">
<stop stop-color="#4280CF"/>
<stop offset="0.0812499" stop-color="#3975C0"/>
<stop offset="0.451042" stop-color="#0C315F"/>
<stop offset="0.586458" stop-color="#0A2444"/>
<stop offset="0.815625" stop-color="#03234B"/>
<stop offset="1" stop-color="#4280CF"/>
</linearGradient>
<linearGradient id="paint2_linear_125_319" x1="8.17591" y1="15.7592" x2="37.7854" y2="16.3591" gradientUnits="userSpaceOnUse">
<stop stop-color="#4280CF"/>
<stop offset="0.0812499" stop-color="#3975C0"/>
<stop offset="0.451042" stop-color="#0C315F"/>
<stop offset="0.586458" stop-color="#0A2444"/>
<stop offset="0.815625" stop-color="#03234B"/>
<stop offset="1" stop-color="#4280CF"/>
</linearGradient>
</defs>
</svg>
