<svg width="37" height="36" viewBox="0 0 37 36" fill="none" xmlns="http://www.w3.org/2000/svg">
<path d="M15.919 3.10293C17.4788 2.50296 19.2057 2.50296 20.7655 3.10293L31.93 7.39593C33.2328 7.89768 34.0923 9.15093 34.0923 10.5459V25.4544C34.0924 26.1365 33.8858 26.8025 33.4998 27.3649C33.1138 27.9272 32.5665 28.3593 31.93 28.6044L20.7655 32.8997C19.2057 33.4996 17.4788 33.4996 15.919 32.8997L4.75679 28.6044C4.11987 28.3597 3.57209 27.9277 3.18568 27.3653C2.79927 26.803 2.59238 26.1367 2.59229 25.4544V10.5459C2.59238 9.86362 2.79927 9.19736 3.18568 8.63501C3.57209 8.07267 4.11987 7.64065 4.75679 7.39593L15.919 3.10293ZM19.9578 5.20218C18.9179 4.8022 17.7667 4.8022 16.7268 5.20218L13.6128 6.40143L26.1903 11.1624L30.5733 9.28593L19.9578 5.20218ZM31.8423 11.1872L19.4673 16.4927V30.9557C19.6338 30.9129 19.7958 30.8612 19.9578 30.7982L31.1223 26.5052C31.3344 26.4233 31.5168 26.2791 31.6453 26.0915C31.7738 25.9039 31.8425 25.6818 31.8423 25.4544V11.1894V11.1872ZM17.2173 30.9557V16.4927L4.84229 11.1894V25.4544C4.84205 25.6818 4.91072 25.9039 5.03925 26.0915C5.16778 26.2791 5.35014 26.4233 5.56228 26.5052L16.7268 30.7982C16.8888 30.8612 17.0508 30.9129 17.2173 30.9557ZM6.11128 9.28593L18.3423 14.5284L23.2113 12.4404L10.4605 7.61193L6.11128 9.28593Z" fill="url(#paint0_linear_125_335)"/>
<defs>
<linearGradient id="paint0_linear_125_335" x1="4.73505" y1="12.3224" x2="35.3307" y2="12.8819" gradientUnits="userSpaceOnUse">
<stop stop-color="#4280CF"/>
<stop offset="0.0812499" stop-color="#3975C0"/>
<stop offset="0.451042" stop-color="#0C315F"/>
<stop offset="0.586458" stop-color="#0A2444"/>
<stop offset="0.815625" stop-color="#03234B"/>
<stop offset="1" stop-color="#4280CF"/>
</linearGradient>
</defs>
</svg>
