<svg width="18" height="15" viewBox="0 0 18 15" fill="none" xmlns="http://www.w3.org/2000/svg">
<path d="M8.30431 3.11289L8.96332 3.80271L9.62232 3.11289C10.3307 2.37138 11.4345 1.5126 12.5956 1.5126C13.7242 1.5126 14.6278 1.90234 15.2471 2.52051C15.8662 3.13856 16.256 4.03976 16.256 5.16483C16.256 6.37984 15.7845 7.40336 15.0062 8.37345C14.2104 9.36532 13.1409 10.2461 11.9957 11.1844C11.9957 11.1844 11.9956 11.1844 11.9956 11.1845L11.9741 11.2021C10.9664 12.0274 9.85287 12.9394 8.96377 13.9602C8.08341 12.948 6.98036 12.0433 5.9814 11.2239L5.93368 11.1848L5.93332 11.1845C4.78779 10.2459 3.71843 9.36488 2.92289 8.373C2.14485 7.40294 1.67361 6.37957 1.67361 5.16483C1.67361 4.03977 2.06341 3.13859 2.6826 2.52054C3.3019 1.90238 4.20569 1.5126 5.33478 1.5126C6.49459 1.5126 7.5952 2.37063 8.30431 3.11289Z" stroke="#FB4B29" stroke-width="1.8228"/>
</svg>
