<svg width="18" height="15" viewBox="0 0 18 15" fill="none" xmlns="http://www.w3.org/2000/svg">
<path d="M12.7329 0.246704C11.1699 0.246704 9.83441 1.36077 9.10065 2.12883C8.36689 1.36077 7.03434 0.246704 5.47211 0.246704C2.77942 0.246704 0.899536 2.12361 0.899536 4.81033C0.899536 7.77073 3.23429 9.68417 5.49299 11.535C6.55933 12.4097 7.66295 13.3134 8.50931 14.3157C8.65174 14.4834 8.86053 14.5804 9.07977 14.5804H9.12302C9.343 14.5804 9.55104 14.4827 9.69273 14.3157C10.5406 13.3134 11.6435 12.4089 12.7105 11.535C14.9685 9.68492 17.3047 7.77147 17.3047 4.81033C17.3047 2.12361 15.4249 0.246704 12.7329 0.246704Z" fill="#FB4B29"/>
</svg>
