<svg width="40" height="40" viewBox="0 0 40 40" fill="none" xmlns="http://www.w3.org/2000/svg">
<circle cx="19.8334" cy="19.6667" r="19.6667" fill="url(#paint0_linear_1007_157)"/>
<path d="M6.45996 19.3118C6.45996 18.7144 6.90388 18.2207 7.47984 18.1425L7.63996 18.1318L28.3828 18.1327L20.889 10.6695C20.4272 10.2097 20.4256 9.46258 20.8854 9.00077C21.3035 8.58094 21.9589 8.54144 22.4216 8.88321L22.5542 8.99718L32.0729 18.4749C32.1337 18.5356 32.1866 18.6012 32.2315 18.6704C32.2442 18.6913 32.2571 18.7126 32.2693 18.7344C32.2806 18.753 32.2907 18.7724 32.3003 18.792C32.3136 18.8205 32.3266 18.8499 32.3385 18.8799C32.3481 18.9031 32.3561 18.9256 32.3634 18.9483C32.3721 18.9765 32.3805 19.0065 32.3878 19.0369C32.3932 19.0582 32.3975 19.0787 32.4012 19.0992C32.4065 19.1298 32.4109 19.1614 32.4141 19.1934C32.4169 19.2179 32.4185 19.242 32.4194 19.2663C32.4197 19.2809 32.42 19.2963 32.42 19.3118L32.4194 19.3575C32.4185 19.3806 32.4169 19.4038 32.4146 19.4268L32.42 19.3118C32.42 19.3862 32.4131 19.4591 32.3999 19.5297C32.3968 19.5466 32.3932 19.5639 32.3891 19.5811C32.3808 19.6167 32.3711 19.6509 32.3599 19.6844C32.3544 19.7011 32.3481 19.7189 32.3413 19.7365C32.3275 19.772 32.3125 19.8059 32.296 19.8389C32.2883 19.8544 32.2797 19.8706 32.2708 19.8867C32.256 19.9129 32.2408 19.9378 32.2248 19.9621C32.2134 19.9792 32.2009 19.9971 32.1878 20.0147L32.1776 20.0283C32.1458 20.0699 32.1113 20.1092 32.0744 20.1461L32.0729 20.1472L22.5543 29.6266C22.0925 30.0864 21.3454 30.0849 20.8855 29.6231C20.4674 29.2033 20.4307 28.5477 20.7744 28.0865L20.889 27.9543L28.3797 20.4927L7.63996 20.4918C6.98827 20.4918 6.45996 19.9634 6.45996 19.3118Z" fill="white"/>
<defs>
<linearGradient id="paint0_linear_1007_157" x1="2.84237" y1="12.39" x2="41.0471" y2="13.0708" gradientUnits="userSpaceOnUse">
<stop stop-color="#4280CF"/>
<stop offset="0.0812499" stop-color="#3975C0"/>
<stop offset="0.451042" stop-color="#0C315F"/>
<stop offset="0.586458" stop-color="#0A2444"/>
<stop offset="0.815625" stop-color="#03234B"/>
<stop offset="1" stop-color="#4280CF"/>
</linearGradient>
</defs>
</svg>
