<svg width="26" height="22" viewBox="0 0 26 22" fill="none" xmlns="http://www.w3.org/2000/svg">
<path d="M25.96 11.3122C25.96 11.9095 25.516 12.4032 24.9401 12.4814L24.78 12.4922L4.03712 12.4912L11.5309 19.9544C11.9927 20.4142 11.9943 21.1613 11.5345 21.6231C11.1165 22.043 10.461 22.0825 9.99831 21.7407L9.86572 21.6267L0.34705 12.149C0.286175 12.0883 0.233301 12.0228 0.188427 11.9535C0.175753 11.9326 0.162851 11.9113 0.15062 11.8895C0.139368 11.8709 0.129202 11.8515 0.119612 11.8319C0.106291 11.8034 0.0932751 11.774 0.0814571 11.744C0.0718555 11.7208 0.063839 11.6983 0.0565262 11.6756C0.0478325 11.6474 0.0393848 11.6174 0.0321198 11.587C0.0267181 11.5657 0.02244 11.5452 0.0187092 11.5247C0.0134621 11.4941 0.00899506 11.4625 0.00580788 11.4305C0.00305557 11.406 0.00139999 11.3819 0.000484467 11.3576C0.000247955 11.343 -4.95911e-05 11.3276 -4.95911e-05 11.3122L0.000541687 11.2664C0.00144577 11.2433 0.00302696 11.2201 0.00528908 11.1971L-4.95911e-05 11.3122C-4.95911e-05 11.2377 0.00684738 11.1648 0.0200386 11.0942C0.023098 11.0773 0.0267429 11.06 0.0307789 11.0428C0.0391617 11.0072 0.0488472 10.973 0.0600014 10.9395C0.0654755 10.9228 0.0718536 10.905 0.0786705 10.8874C0.0924587 10.8519 0.107447 10.818 0.123936 10.785C0.131596 10.7695 0.140175 10.7533 0.149158 10.7372C0.163904 10.711 0.179094 10.6861 0.195158 10.6618C0.206491 10.6447 0.219042 10.6268 0.232147 10.6092L0.242359 10.5956C0.274151 10.554 0.30864 10.5147 0.345564 10.4778L0.346979 10.4767L9.86565 0.997331C10.3274 0.537467 11.0746 0.539014 11.5344 1.00079C11.9525 1.42058 11.9892 2.07621 11.6455 2.53745L11.531 2.66955L4.04027 10.1312L24.78 10.1322C25.4317 10.1322 25.96 10.6605 25.96 11.3122Z" fill="currentColor"/>
</svg>
