<svg width="39" height="41" viewBox="0 0 39 41" fill="none" xmlns="http://www.w3.org/2000/svg">
<path d="M19.6459 10.4317C14.263 10.4317 9.92124 14.9269 9.92124 20.5C9.92124 26.0731 14.263 30.5683 19.6459 30.5683C25.0287 30.5683 29.3705 26.0731 29.3705 20.5C29.3705 14.9269 25.0287 10.4317 19.6459 10.4317ZM19.6459 27.0457C16.1673 27.0457 13.3236 24.1102 13.3236 20.5C13.3236 16.8898 16.1589 13.9543 19.6459 13.9543C23.1328 13.9543 25.9681 16.8898 25.9681 20.5C25.9681 24.1102 23.1244 27.0457 19.6459 27.0457ZM32.0365 10.0198C32.0365 11.3255 31.0209 12.3682 29.7683 12.3682C28.5072 12.3682 27.5 11.3167 27.5 10.0198C27.5 8.72293 28.5157 7.67141 29.7683 7.67141C31.0209 7.67141 32.0365 8.72293 32.0365 10.0198ZM38.4773 12.4033C38.3334 9.25746 37.6394 6.47092 35.4135 4.1751C33.196 1.87927 30.5046 1.16073 27.4662 1.003C24.3347 0.818986 14.9486 0.818986 11.8171 1.003C8.78712 1.15197 6.09571 1.87051 3.8698 4.16633C1.64388 6.46216 0.958336 9.24869 0.805992 12.3945C0.628258 15.6367 0.628258 25.3545 0.805992 28.5967C0.949873 31.7425 1.64388 34.5291 3.8698 36.8249C6.09571 39.1207 8.77866 39.8392 11.8171 39.997C14.9486 40.181 24.3347 40.181 27.4662 39.997C30.5046 39.848 33.196 39.1295 35.4135 36.8249C37.6309 34.5291 38.3249 31.7425 38.4773 28.5967C38.655 25.3545 38.655 15.6455 38.4773 12.4033ZM34.4317 32.0755C33.7715 33.793 32.4935 35.1162 30.8262 35.8084C28.3295 36.8336 22.405 36.5971 19.6459 36.5971C16.8867 36.5971 10.9538 36.8249 8.46551 35.8084C6.80665 35.1249 5.52865 33.8018 4.86003 32.0755C3.8698 29.4905 4.09831 23.3566 4.09831 20.5C4.09831 17.6434 3.87826 11.5007 4.86003 8.92448C5.52019 7.20699 6.79819 5.88382 8.46551 5.19157C10.9623 4.16633 16.8867 4.40293 19.6459 4.40293C22.405 4.40293 28.3379 4.1751 30.8262 5.19157C32.4851 5.87506 33.7631 7.19823 34.4317 8.92448C35.4219 11.5095 35.1934 17.6434 35.1934 20.5C35.1934 23.3566 35.4219 29.4993 34.4317 32.0755Z" fill="white"/>
</svg>
