<svg width="38" height="37" viewBox="0 0 38 37" fill="none" xmlns="http://www.w3.org/2000/svg">
<path d="M20.226 3.08337V6.16671C26.9939 6.99921 31.7885 13.1505 30.956 19.9184C30.6157 22.6456 29.3758 25.1814 27.4324 27.1248C25.489 29.0681 22.9532 30.3081 20.226 30.6484V33.7317C28.7051 32.8067 34.7947 25.1909 33.8697 16.7271C33.0681 9.54296 27.4101 3.85421 20.226 3.08337ZM17.1426 3.08337C14.121 3.36087 11.2689 4.54796 8.92556 6.47504L11.1301 8.84921C12.8568 7.46171 14.9381 6.56754 17.1426 6.25921V3.17587V3.08337ZM6.75181 8.74129C4.81807 11.0768 3.63101 13.9397 3.34473 16.9584H6.42806C6.72098 14.7692 7.58431 12.688 8.95639 10.9459L6.75181 8.74129ZM3.36014 20.0417C3.66848 23.0634 4.85556 25.9155 6.76723 28.2588L8.95639 26.0542C7.59499 24.3115 6.72707 22.2349 6.44348 20.0417H3.36014ZM11.0685 28.3205L8.92556 30.4325C11.2608 32.3792 14.1199 33.5915 17.1426 33.9167V30.8334C14.9495 30.5498 12.8729 29.6819 11.1301 28.3205H11.0685ZM13.4118 25.9L14.8301 19.903L10.2051 15.9255L16.2947 15.355L18.6843 9.78962L21.0739 15.4167L27.1635 15.9255L22.5385 19.903L23.9568 25.9L18.6843 22.7242L13.4118 25.9Z" fill="url(#paint0_linear_125_333)"/>
<defs>
<linearGradient id="paint0_linear_125_333" x1="5.42748" y1="12.7959" x2="35.1669" y2="13.3221" gradientUnits="userSpaceOnUse">
<stop stop-color="#4280CF"/>
<stop offset="0.0812499" stop-color="#3975C0"/>
<stop offset="0.451042" stop-color="#0C315F"/>
<stop offset="0.586458" stop-color="#0A2444"/>
<stop offset="0.815625" stop-color="#03234B"/>
<stop offset="1" stop-color="#4280CF"/>
</linearGradient>
</defs>
</svg>
