<svg width="77" height="27" viewBox="0 0 77 27" fill="none" xmlns="http://www.w3.org/2000/svg">
<path d="M77 0L20.6679 24.03C15.996 26.01 12.0728 27 8.89829 27C5.30454 27 2.69906 25.74 1.08187 23.22C0.0636394 21.6 -0.23584 19.545 0.183431 17.055C0.602703 14.565 1.71078 11.91 3.50766 9.09C5.00506 6.81 7.46079 3.81 10.8749 0.0899999C9.67694 2.01 8.8384 3.99 8.35923 6.03C7.46079 9.87 8.26939 12.69 10.785 14.49C11.9829 15.33 13.6301 15.75 15.7264 15.75C17.4035 15.75 19.2902 15.48 21.3866 14.94L77 0Z" fill="white"/>
</svg>
