<svg  viewBox="0 0 12 11" fill="none" xmlns="http://www.w3.org/2000/svg">
<path d="M6.07724 0.464159C6.23017 0.218187 6.58817 0.218187 6.7411 0.464159L8.355 3.05989C8.40881 3.14643 8.49429 3.20854 8.59322 3.23297L11.5606 3.96575C11.8418 4.03519 11.9524 4.37566 11.7658 4.59712L9.79581 6.93416C9.73013 7.01207 9.69748 7.11256 9.70482 7.21421L9.92488 10.2628C9.94573 10.5517 9.65611 10.7621 9.3878 10.653L6.5564 9.50167C6.462 9.46328 6.35634 9.46328 6.26194 9.50167L3.43054 10.653C3.16223 10.7621 2.87261 10.5517 2.89346 10.2628L3.11352 7.21421C3.12086 7.11256 3.08821 7.01207 3.02253 6.93416L1.05256 4.59712C0.86589 4.37566 0.976516 4.03519 1.25771 3.96575L4.22512 3.23297C4.32405 3.20854 4.40953 3.14643 4.46334 3.05989L6.07724 0.464159Z" fill="#FFC833"/>
</svg>
