<svg width="28" height="28" viewBox="0 0 28 28" fill="none" xmlns="http://www.w3.org/2000/svg">
<path d="M0.77722 11.6631C0.0124168 11.0846 0.42153 9.86552 1.38048 9.86552H9.49488C9.93339 9.86552 10.3207 9.57983 10.4503 9.16088L12.9454 1.09027C13.2358 0.150759 14.5657 0.150755 14.8561 1.09027L17.3512 9.16088C17.4808 9.57983 17.8681 9.86552 18.3066 9.86552H26.451C27.4069 9.86552 27.818 11.0781 27.0592 11.6594L20.3938 16.7655C20.0623 17.0195 19.9235 17.4528 20.0458 17.8521L22.5451 26.0148C22.8299 26.9452 21.7531 27.6931 20.9808 27.1014L14.5089 22.1435C14.1501 21.8686 13.6514 21.8686 13.2926 22.1435L6.83241 27.0925C6.05892 27.685 4.98109 26.9342 5.26889 26.0033L7.80365 17.8044C7.92796 17.4023 7.7872 16.9654 7.45152 16.7115L0.77722 11.6631Z" fill="#FFD960"/>
</svg>
